<mxfile host="Electron" modified="2024-03-09T10:58:22.168Z" agent="Mozilla/5.0 (X11; Linux x86_64) AppleWebKit/537.36 (KHTML, like Gecko) draw.io/23.1.5 Chrome/120.0.6099.109 Electron/28.1.0 Safari/537.36" etag="cs9EnSTLoNK09WSgap7O" version="23.1.5" type="device">
  <diagram name="第 1 页" id="aiqblZqHGUxjOZp4OMoq">
    <mxGraphModel dx="1114" dy="839" grid="1" gridSize="10" guides="1" tooltips="1" connect="1" arrows="1" fold="1" page="1" pageScale="1" pageWidth="827" pageHeight="1169" math="0" shadow="0">
      <root>
        <mxCell id="0" />
        <mxCell id="1" parent="0" />
        <mxCell id="3oRafrWtNPl6Id3I_nco-6" style="edgeStyle=orthogonalEdgeStyle;rounded=0;orthogonalLoop=1;jettySize=auto;html=1;exitX=1;exitY=0.5;exitDx=0;exitDy=0;entryX=0.092;entryY=0.5;entryDx=0;entryDy=0;entryPerimeter=0;curved=1;fontFamily=Maple Mono SC NF;fontSize=14;fontColor=#666666;strokeColor=#666666;" parent="1" source="3oRafrWtNPl6Id3I_nco-17" target="3oRafrWtNPl6Id3I_nco-13" edge="1">
          <mxGeometry relative="1" as="geometry">
            <mxPoint x="550" y="350" as="targetPoint" />
          </mxGeometry>
        </mxCell>
        <mxCell id="3oRafrWtNPl6Id3I_nco-1" value="Read Marker" style="rounded=0;whiteSpace=wrap;html=1;fontFamily=Maple Mono SC NF;fontSize=14;gradientColor=none;fillColor=none;strokeColor=#666666;fontColor=#666666;" parent="1" vertex="1">
          <mxGeometry x="70" y="320" width="120" height="60" as="geometry" />
        </mxCell>
        <mxCell id="3oRafrWtNPl6Id3I_nco-11" style="edgeStyle=orthogonalEdgeStyle;rounded=0;orthogonalLoop=1;jettySize=auto;html=1;exitX=1;exitY=0.5;exitDx=0;exitDy=0;entryX=0.483;entryY=0.1;entryDx=0;entryDy=0;entryPerimeter=0;curved=1;fontFamily=Maple Mono SC NF;fontSize=14;fontColor=#666666;strokeColor=#666666;" parent="1" source="3oRafrWtNPl6Id3I_nco-20" target="3oRafrWtNPl6Id3I_nco-13" edge="1">
          <mxGeometry relative="1" as="geometry">
            <mxPoint x="590" y="265" as="sourcePoint" />
            <mxPoint x="610" y="320" as="targetPoint" />
          </mxGeometry>
        </mxCell>
        <mxCell id="-K4UDkxvdP5eBuNdIXLi-2" style="edgeStyle=orthogonalEdgeStyle;rounded=0;orthogonalLoop=1;jettySize=auto;html=1;exitX=0.96;exitY=0.7;exitDx=0;exitDy=0;exitPerimeter=0;curved=1;strokeColor=#666666;" parent="1" source="3oRafrWtNPl6Id3I_nco-13" target="-K4UDkxvdP5eBuNdIXLi-1" edge="1">
          <mxGeometry relative="1" as="geometry">
            <Array as="points">
              <mxPoint x="720" y="391" />
              <mxPoint x="720" y="430" />
              <mxPoint x="480" y="430" />
            </Array>
          </mxGeometry>
        </mxCell>
        <mxCell id="3oRafrWtNPl6Id3I_nco-13" value="Read Value" style="ellipse;shape=cloud;whiteSpace=wrap;html=1;fontFamily=Maple Mono SC NF;fontSize=14;fontColor=#666666;fillColor=none;strokeColor=#666666;" parent="1" vertex="1">
          <mxGeometry x="570" y="335" width="120" height="80" as="geometry" />
        </mxCell>
        <mxCell id="3oRafrWtNPl6Id3I_nco-17" value="" style="verticalLabelPosition=bottom;verticalAlign=top;html=1;shape=mxgraph.basic.tick;gradientColor=default;fontFamily=Maple Mono SC NF;fontSize=14;fontColor=#666666;strokeColor=#666666;" parent="1" vertex="1">
          <mxGeometry x="430" y="365" width="52.5" height="50" as="geometry" />
        </mxCell>
        <mxCell id="3oRafrWtNPl6Id3I_nco-21" style="edgeStyle=orthogonalEdgeStyle;rounded=0;orthogonalLoop=1;jettySize=auto;html=1;exitX=1;exitY=0;exitDx=0;exitDy=0;exitPerimeter=0;entryX=0;entryY=0.5;entryDx=0;entryDy=0;curved=1;fontFamily=Maple Mono SC NF;fontSize=14;fontColor=#666666;strokeColor=#666666;" parent="1" source="3oRafrWtNPl6Id3I_nco-18" target="3oRafrWtNPl6Id3I_nco-20" edge="1">
          <mxGeometry relative="1" as="geometry" />
        </mxCell>
        <mxCell id="3oRafrWtNPl6Id3I_nco-18" value="" style="verticalLabelPosition=bottom;verticalAlign=top;html=1;shape=mxgraph.basic.x;gradientColor=default;fontFamily=Maple Mono SC NF;fontSize=14;fontColor=#666666;strokeColor=#666666;" parent="1" vertex="1">
          <mxGeometry x="340" y="230" width="60" height="55" as="geometry" />
        </mxCell>
        <mxCell id="3oRafrWtNPl6Id3I_nco-20" value="Read Length" style="ellipse;whiteSpace=wrap;html=1;fontFamily=Maple Mono SC NF;fontSize=14;fontColor=#666666;fillColor=none;strokeColor=#666666;" parent="1" vertex="1">
          <mxGeometry x="540" y="210" width="90" height="60" as="geometry" />
        </mxCell>
        <mxCell id="3oRafrWtNPl6Id3I_nco-23" value="Is Fixed Type?" style="whiteSpace=wrap;html=1;shape=mxgraph.basic.oval_callout;fontFamily=Maple Mono SC NF;fontSize=14;fontColor=#666666;fillColor=none;strokeColor=#666666;" parent="1" vertex="1">
          <mxGeometry x="180" y="260" width="100" height="60" as="geometry" />
        </mxCell>
        <mxCell id="3oRafrWtNPl6Id3I_nco-24" style="edgeStyle=orthogonalEdgeStyle;rounded=0;orthogonalLoop=1;jettySize=auto;html=1;exitX=0.945;exitY=0.45;exitDx=0;exitDy=0;exitPerimeter=0;entryX=0;entryY=1;entryDx=0;entryDy=0;entryPerimeter=0;curved=1;endArrow=none;endFill=0;fontFamily=Maple Mono SC NF;fontSize=14;fontColor=#666666;strokeColor=#666666;" parent="1" source="3oRafrWtNPl6Id3I_nco-23" target="3oRafrWtNPl6Id3I_nco-18" edge="1">
          <mxGeometry relative="1" as="geometry">
            <Array as="points">
              <mxPoint x="320" y="287" />
              <mxPoint x="320" y="300" />
              <mxPoint x="340" y="300" />
            </Array>
          </mxGeometry>
        </mxCell>
        <mxCell id="3oRafrWtNPl6Id3I_nco-25" style="edgeStyle=orthogonalEdgeStyle;rounded=0;orthogonalLoop=1;jettySize=auto;html=1;exitX=0.945;exitY=0.45;exitDx=0;exitDy=0;exitPerimeter=0;entryX=0;entryY=0.7;entryDx=0;entryDy=0;entryPerimeter=0;curved=1;endArrow=none;endFill=0;fontFamily=Maple Mono SC NF;fontSize=14;fontColor=#666666;strokeColor=#666666;" parent="1" source="3oRafrWtNPl6Id3I_nco-23" target="3oRafrWtNPl6Id3I_nco-17" edge="1">
          <mxGeometry relative="1" as="geometry" />
        </mxCell>
        <mxCell id="-K4UDkxvdP5eBuNdIXLi-1" value="&lt;font face=&quot;Maple Mono SC NF&quot;&gt;Payload&lt;/font&gt;" style="ellipse;whiteSpace=wrap;html=1;aspect=fixed;strokeColor=#666666;fontColor=#666666;fillColor=none;" parent="1" vertex="1">
          <mxGeometry x="440" y="460" width="80" height="80" as="geometry" />
        </mxCell>
      </root>
    </mxGraphModel>
  </diagram>
</mxfile>
